<svg xmlns="http://www.w3.org/2000/svg" viewBox="0 0 900 1000">
  <defs>
    <linearGradient id="bg" x1="0" y1="0" x2="1" y2="1">
      <stop offset="0" stop-color="#0b1218"/>
      <stop offset="1" stop-color="#15404a"/>
    </linearGradient>
    <radialGradient id="pulse" cx="0.52" cy="0.64" r="0.62">
      <stop offset="0" stop-color="#66dbc2" stop-opacity="0.32"/>
      <stop offset="1" stop-color="#66dbc2" stop-opacity="0"/>
    </radialGradient>
  </defs>
  <rect width="900" height="1000" fill="url(#bg)"/>
  <rect width="900" height="1000" fill="url(#pulse)"/>

  <rect x="64" y="158" width="772" height="712" rx="30" fill="#081015" fill-opacity="0.65" stroke="#ffffff" stroke-opacity="0.15"/>
  <text x="86" y="120" fill="#f2fbff" font-size="48" font-family="Inter, Arial" font-weight="700">Fraud Intelligence Dashboard</text>

  <rect x="96" y="214" width="708" height="246" rx="20" fill="#0f1c22" stroke="#7fe3c7" stroke-opacity="0.28"/>
  <text x="128" y="260" fill="#c8f2e5" font-size="24" font-family="Inter, Arial">Risk Signals (Live)</text>
  <polyline points="128,388 218,340 292,360 374,292 458,316 542,248 626,274 708,230" fill="none" stroke="#66dbc2" stroke-width="4"/>
  <g fill="#66dbc2">
    <circle cx="218" cy="340" r="6"/><circle cx="374" cy="292" r="6"/><circle cx="542" cy="248" r="6"/><circle cx="708" cy="230" r="6"/>
  </g>

  <rect x="96" y="492" width="340" height="330" rx="20" fill="#101b24" stroke="#ffffff" stroke-opacity="0.14"/>
  <text x="122" y="540" fill="#e8f8ff" font-size="22" font-family="Inter, Arial">Weighted Score</text>
  <g fill="#8fd7dd" font-family="Inter, Arial" font-size="18">
    <text x="122" y="584">Fingerprint ............ 50%</text>
    <text x="122" y="618">IP Correlation ......... 30%</text>
    <text x="122" y="652">Subscription Signal .... 20%</text>
  </g>

  <rect x="464" y="492" width="340" height="330" rx="20" fill="#101b24" stroke="#ffffff" stroke-opacity="0.14"/>
  <text x="490" y="540" fill="#e8f8ff" font-size="22" font-family="Inter, Arial">Alert Queue</text>
  <g font-family="Inter, Arial" font-size="17">
    <text x="490" y="584" fill="#ffb3b3">HIGH  - Multi-account cluster</text>
    <text x="490" y="618" fill="#ffd7a3">MED   - IP velocity anomaly</text>
    <text x="490" y="652" fill="#c2e7ff">LOW   - Device mismatch</text>
    <text x="490" y="686" fill="#9be9cd">INFO  - Pattern confirmed</text>
  </g>
</svg>
