<svg xmlns="http://www.w3.org/2000/svg" viewBox="0 0 2100 800">
  <defs>
    <linearGradient id="bg" x1="0" y1="0" x2="1" y2="0">
      <stop offset="0" stop-color="#0f1622"/>
      <stop offset="1" stop-color="#1d3f55"/>
    </linearGradient>
    <radialGradient id="halo" cx="0.78" cy="0.2" r="0.8">
      <stop offset="0" stop-color="#6cf0be" stop-opacity="0.22"/>
      <stop offset="1" stop-color="#6cf0be" stop-opacity="0"/>
    </radialGradient>
    <pattern id="lines" width="28" height="28" patternUnits="userSpaceOnUse">
      <path d="M28 0H0V28" fill="none" stroke="#ffffff" stroke-opacity="0.05"/>
    </pattern>
  </defs>

  <rect width="2100" height="800" fill="url(#bg)"/>
  <rect width="2100" height="800" fill="url(#halo)"/>
  <rect width="2100" height="800" fill="url(#lines)"/>

  <rect x="80" y="104" width="1940" height="604" rx="30" fill="#0b131d" fill-opacity="0.62" stroke="#ffffff" stroke-opacity="0.14"/>

  <text x="120" y="188" fill="#f2fbff" font-size="70" font-family="Inter, Arial" font-weight="700">Grafana QA Monitoring Suite</text>
  <text x="120" y="248" fill="#9fd8cb" font-size="32" font-family="Inter, Arial">cross-brand telemetry and KPI monitoring</text>

  <g>
    <rect x="120" y="288" width="590" height="360" rx="20" fill="#101a28" stroke="#ffffff" stroke-opacity="0.14"/>
    <text x="152" y="338" fill="#dbefff" font-size="24" font-family="Inter, Arial">Conversation Volume</text>
    <polyline points="152,580 220,550 288,560 356,520 424,528 492,470 560,482 628,444" fill="none" stroke="#6cf0be" stroke-width="4"/>
  </g>

  <g>
    <rect x="756" y="288" width="590" height="360" rx="20" fill="#101a28" stroke="#ffffff" stroke-opacity="0.14"/>
    <text x="788" y="338" fill="#dbefff" font-size="24" font-family="Inter, Arial">Agent Efficiency</text>
    <rect x="800" y="390" width="50" height="220" rx="8" fill="#4e85bf"/>
    <rect x="890" y="350" width="50" height="260" rx="8" fill="#5ed29c"/>
    <rect x="980" y="420" width="50" height="190" rx="8" fill="#4e85bf"/>
    <rect x="1070" y="330" width="50" height="280" rx="8" fill="#5ed29c"/>
    <rect x="1160" y="370" width="50" height="240" rx="8" fill="#4e85bf"/>
  </g>

  <g>
    <rect x="1392" y="288" width="590" height="360" rx="20" fill="#101a28" stroke="#ffffff" stroke-opacity="0.14"/>
    <text x="1424" y="338" fill="#dbefff" font-size="24" font-family="Inter, Arial">Anomaly Queue</text>
    <g font-family="Inter, Arial" font-size="22">
      <text x="1424" y="404" fill="#ffd5a1">response_delay_spike .... MEDIUM</text>
      <text x="1424" y="452" fill="#ffb7b7">no_reply_window ......... HIGH</text>
      <text x="1424" y="500" fill="#c8f2e5">telemetry_gap ........... LOW</text>
      <text x="1424" y="548" fill="#9ee1ff">brand_isolation_check ... PASS</text>
    </g>
  </g>
</svg>
